<?xml version="1.0" encoding="UTF-8" standalone="no"?>
<!DOCTYPE svg PUBLIC "-//W3C//DTD SVG 1.1//EN" "http://www.w3.org/Graphics/SVG/1.1/DTD/svg11.dtd">
<svg width="100%" height="100%" viewBox="0 0 994 820" version="1.1" xmlns="http://www.w3.org/2000/svg" xmlns:xlink="http://www.w3.org/1999/xlink" xml:space="preserve" xmlns:serif="http://www.serif.com/" style="fill-rule:evenodd;clip-rule:evenodd;stroke-linejoin:round;stroke-miterlimit:2;">
    <g transform="matrix(1,0,0,1,-457.967,-126.153)">
        <g transform="matrix(1,0,0,1,2.48581,-7.09437)">
            <g transform="matrix(1.03828,0,0,1.03828,49.5604,-137.462)">
                <path d="M1166.71,386.846C1197.05,377.396 1227.67,369.087 1247.33,365.912C1274.57,361.511 1296.38,361.665 1311.6,365.772C1326.28,369.735 1336.17,377.349 1341.87,387.212C1347.56,397.075 1349.21,409.452 1345.3,424.147C1341.25,439.377 1330.48,458.345 1313.04,479.734C1252.91,553.518 1109.52,663.523 930.753,766.734C751.986,869.945 585.021,939.127 491.058,954.308C463.819,958.709 442.005,958.556 426.79,954.448C412.11,950.485 402.214,942.872 396.52,933.009C390.825,923.145 389.18,910.769 393.088,896.074C397.138,880.844 407.912,861.876 425.343,840.486C441.56,820.586 468.908,794.36 498.943,768.112C488.344,732.447 482.653,694.679 482.653,655.593C482.653,437.661 659.586,260.728 877.517,260.728C991.68,260.728 1094.59,309.281 1166.71,386.846ZM541.819,775.381L543.246,780.098C506.258,810.974 475.132,840.374 455.207,864.823C444.05,878.514 436.03,890.662 431.928,901.14C429.891,906.342 428.008,910.497 429.883,913.746C431.759,916.995 436.299,917.441 441.823,918.279C452.948,919.965 467.478,919.093 484.914,916.276C576.145,901.536 737.921,833.581 911.49,733.37C1085.06,633.16 1224.8,527.036 1283.18,455.397C1294.34,441.706 1302.36,429.558 1306.46,419.08C1308.5,413.878 1310.38,409.723 1308.5,406.474C1306.63,403.226 1302.09,402.779 1296.57,401.942C1285.44,400.256 1270.91,401.127 1253.47,403.944C1228.18,408.03 1189.53,419.082 1154.65,430.9L1126.93,400.474C1126.9,400.443 1126.86,400.412 1126.83,400.38C1062.61,337.795 974.186,299.253 877.517,299.253C680.848,299.253 521.178,458.924 521.178,655.593C521.178,685.533 524.879,714.616 531.847,742.409L541.672,774.896C541.729,775.053 541.785,775.211 541.841,775.369L541.819,775.381ZM1264.79,578.227C1269.77,603.248 1272.38,629.118 1272.38,655.593C1272.38,873.524 1095.45,1050.46 877.517,1050.46C779.798,1050.46 690.322,1014.88 621.344,955.991C634.766,951.169 648.706,945.882 663.104,940.149C722.781,985.204 797.052,1011.93 877.517,1011.93C1074.19,1011.93 1233.86,852.262 1233.86,655.593C1233.86,639.275 1232.76,623.212 1230.63,607.474C1242.77,597.48 1254.17,587.714 1264.79,578.227Z" style="fill:rgb(12,0,0);"/>
            </g>
            <g transform="matrix(0.741466,0,0,0.741466,309.379,55.1286)">
                <path d="M520.556,789.978C520.551,789.979 520.547,789.98 520.542,789.981C519.951,788.338 520.296,787.741 520.382,787.57C520.26,788.357 520.31,789.178 520.556,789.978ZM523.23,783.607C518.256,785.607 512.668,785.459 507.8,783.187C502.808,780.857 499.043,776.515 497.445,771.244L497.444,771.241C486.326,734.639 480.337,695.81 480.337,655.593C480.337,436.383 658.307,258.412 877.517,258.412C990.87,258.412 1093.19,306 1165.59,382.269C1170.3,387.304 1172.63,394.114 1171.99,400.979C1171.35,407.849 1167.8,414.116 1162.23,418.195C1161.96,418.395 1161.71,418.619 1161.48,418.865C1154.21,423.979 1144.23,422.888 1138.23,416.266C1138.22,416.258 1138.21,416.249 1138.21,416.24C1073.52,345.752 980.636,301.57 877.517,301.57C682.127,301.57 523.494,460.202 523.494,655.593C523.494,689.833 528.367,722.945 537.454,754.272C540.861,766.097 534.917,778.606 523.598,783.434C523.472,783.487 523.349,783.545 523.23,783.607ZM521.229,785.397C521.013,785.72 520.834,786.065 520.692,786.425C520.839,786.037 521.022,785.699 521.229,785.397ZM1231.13,709.336C1231.48,709.006 1231.78,708.634 1232.03,708.232C1231.77,708.662 1231.47,709.023 1231.13,709.336ZM1232.42,707.483C1232.93,706.268 1232.99,704.874 1232.52,703.567C1233.28,705.672 1232.74,706.808 1232.42,707.483ZM1230.72,709.681C1238.58,704.328 1248.9,704.236 1256.86,709.466C1264.89,714.738 1268.9,724.361 1267,733.774L1267,733.784C1230.63,915.605 1069.97,1052.77 877.517,1052.77C831.297,1052.77 786.91,1044.86 745.638,1030.32L745.627,1030.32C737.864,1027.6 732.505,1020.47 732.054,1012.26C731.603,1004.05 736.148,996.377 743.566,992.828L743.574,992.824C745.98,991.668 748.394,990.51 750.812,989.347C753.134,988.229 755.81,988.094 758.233,988.973C758.24,988.976 758.247,988.978 758.254,988.981C795.523,1002.34 835.677,1009.62 877.517,1009.62C1052.16,1009.62 1197.43,882.887 1226.32,716.455L1226.32,716.439C1226.78,713.758 1228.29,711.373 1230.53,709.821C1230.59,709.775 1230.65,709.729 1230.72,709.681Z" style="fill:rgb(12,0,0);"/>
            </g>
        </g>
    </g>
</svg>
